<svg width="375" height="380" viewBox="0 0 375 380" fill="none" xmlns="http://www.w3.org/2000/svg">
<path d="M-94.9869 361.281L396.058 69.2961L407.077 87.8281L-83.9674 379.813L-94.9869 361.281Z" fill="black"/>
<path d="M396.046 69.2758C354.427 -0.716103 290.422 -53.5159 218.109 -77.5082C145.797 -101.5 71.1011 -94.7199 10.4544 -58.6582C-50.1922 -22.5966 -91.8221 39.7923 -105.277 114.784C-118.732 189.775 -102.91 271.225 -61.2911 341.217L167.377 205.247L396.046 69.2758Z" fill="#E93457"/>
<path d="M406.527 86.9016C425.962 119.586 431.519 158.711 421.977 195.669C412.434 232.626 388.573 264.389 355.642 283.971C322.712 303.552 283.409 309.347 246.381 300.081C209.353 290.816 177.632 267.248 158.197 234.563L282.362 160.732L406.527 86.9016Z" fill="white"/>
<circle cx="275.738" cy="152.756" r="38.8094" transform="rotate(-30.7365 275.738 152.756)" fill="white" stroke="black" stroke-width="18.3267"/>
</svg>
