<svg width="30" height="29" viewBox="0 0 30 29" fill="none" xmlns="http://www.w3.org/2000/svg">
<path d="M0.845093 13.9437H29.155V16.0563H0.845093V13.9437Z" fill="black"/>
<path d="M29.155 14.0493C29.155 10.3232 27.6636 6.7497 25.0091 4.11494C22.3545 1.48019 18.7541 2.81313e-07 15 0C11.2459 -2.81313e-07 7.64554 1.48019 4.99098 4.11494C2.33641 6.7497 0.845093 10.3232 0.845093 14.0493L15 14.0493H29.155Z" fill="#E93457"/>
<path d="M29.155 14.0493C29.155 17.7754 27.6636 21.3489 25.0091 23.9836C22.3545 26.6184 18.7541 28.0986 15 28.0986C11.2459 28.0986 7.64554 26.6184 4.99098 23.9836C2.33641 21.3489 0.845093 17.7754 0.845093 14.0493L15 14.0493H29.155Z" fill="#ECECEC"/>
<circle cx="14.8416" cy="14.9472" r="3.80282" fill="white" stroke="black" stroke-width="1.79577"/>
</svg>
